#!OML:ASF F:\VICON\USERDATA\INSTALL\Justin_Nancy\Justin_Nancy.ASF
:FULLY-SPECIFIED
:DEGREES
167
root -10.1074 17.4435 -9.12858 0.776665 -3.56264 2.08961
lowerback 6.69609 -0.706031 -3.21923
upperback 0.59389 -1.11231 2.08257
thorax -3.03891 -0.501558 4.07176
lowerneck -16.3908 -2.50836 -9.14325
upperneck 22.8167 -2.02753 3.98551
head 10.1298 -1.27088 2.66656
rclavicle -1.60022e-014 6.36111e-015
rhumerus -33.3665 -16.1104 -76.7937
rradius 31.2864
rwrist 7.29623
rhand -13.4525 16.2174
rfingers 7.12502
rthumb 12.6569 -13.3791
lclavicle -1.60022e-014 6.36111e-015
lhumerus -28.8433 7.96691 83.5432
lradius 35.2149
lwrist -5.286
lhand -15.9208 24.4256
lfingers 7.12502
lthumb 10.2766 54.1545
rfemur -29.6247 -0.953995 17.1046
rtibia 45.5105
rfoot -7.49609 -9.35008
rtoes 2.01217
lfemur -9.29776 -2.39755 -27.3159
ltibia 27.9297
lfoot -16.0455 -2.0891
ltoes 5.15898
168
root -10.1131 17.4499 -9.00795 0.995648 -3.51047 2.13665
lowerback 6.57334 -0.691268 -3.25757
upperback 0.579583 -1.09252 2.07646
thorax -2.98626 -0.492191 4.0828
lowerneck -16.439 -2.48981 -9.18158
upperneck 22.7413 -2.02371 4.13913
head 10.1126 -1.25244 2.72732
rclavicle -7.00716e-015 1.98785e-014
rhumerus -33.3339 -16.4161 -76.6679
rradius 31.1194
rwrist 7.52342
rhand -13.2496 16.3104
rfingers 7.12502
rthumb 12.8526 -13.2739
lclavicle -7.00716e-015 1.98785e-014
lhumerus -28.7198 7.6098 83.5845
lradius 35.8572
lwrist -5.0928
lhand -14.955 27.1699
lfingers 7.12502
lthumb 11.2082 56.8506
rfemur -29.7348 -0.47745 16.8362
rtibia 42.7789
rfoot -6.9671 -8.9789
rtoes -0.371044
lfemur -8.92361 -2.51345 -27.3948
ltibia 27.6825
lfoot -16.3159 -2.00958
ltoes 4.36746
169
root -10.1195 17.4557 -8.88568 1.15016 -3.52102 2.13678
lowerback 6.66046 -0.643424 -3.38183
upperback 0.464986 -1.03704 2.17932
thorax -3.15511 -0.45641 4.25965
lowerneck -16.6259 -2.49897 -9.25516
upperneck 23.064 -2.00637 4.15811
head 10.2647 -1.25323 2.75349
rclavicle -3.37934e-015 -8.74653e-015
rhumerus -33.3263 -16.6907 -76.375
rradius 30.7346
rwrist 7.88001
rhand -13.4074 16.7761
rfingers 7.12502
rthumb 12.7005 -12.8177
lclavicle -3.37934e-015 -8.74653e-015
lhumerus -28.8201 7.12097 83.7513
lradius 36.4802
lwrist -4.72089
lhand -15.6001 27.9449
lfingers 7.12502
lthumb 10.5859 57.6583
rfemur -29.7218 0.362147 16.5222
rtibia 39.9748
rfoot -6.18923 -8.59009
rtoes -2.26861
lfemur -8.46347 -2.53289 -27.4316
ltibia 27.3909
lfoot -16.4746 -1.8859
ltoes 4.15172
170
root -10.1296 17.4569 -8.76213 1.29652 -3.44745 2.00738
lowerback 6.7647 -0.643979 -3.36666
upperback 0.397772 -1.03543 2.29726
thorax -3.28161 -0.450865 4.37772
lowerneck -16.8878 -2.51508 -9.35012
upperneck 23.2094 -1.97363 4.14711
head 10.3666 -1.24833 2.77183
rclavicle -2.98177e-016 3.18055e-015
rhumerus -33.4472 -16.8459 -76.2013
rradius 30.6827
rwrist 8.09311
rhand -13.5584 16.6211
rfingers 7.12502
rthumb 12.5549 -12.9816
lclavicle -2.98177e-016 3.18055e-015
lhumerus -28.9005 6.92236 83.8319
lradius 37.0149
lwrist -4.61777
lhand -16.189 27.0208
lfingers 7.12502
lthumb 10.0178 56.7624
rfemur -29.5641 1.35329 16.3074
rtibia 37.1143
rfoot -5.73529 -8.28785
rtoes -3.70359
lfemur -7.98798 -2.51991 -27.282
ltibia 27.0718
lfoot -16.6938 -1.96569
ltoes 4.31081
171
root -10.1442 17.4585 -8.64324 1.47624 -3.35234 1.92905
lowerback 6.7356 -0.680658 -3.41787
upperback 0.361752 -1.08436 2.38881
thorax -3.29515 -0.472912 4.5071
lowerneck -16.8954 -2.43631 -9.40626
upperneck 23.1489 -1.84961 4.16577
head 10.3373 -1.19274 2.80428
rclavicle 7.35503e-015 3.18055e-015
rhumerus -33.6836 -16.5241 -76.2359
rradius 31.0027
rwrist 7.74499
rhand -13.4981 16.2744
rfingers 7.12502
rthumb 12.6131 -13.3248
lclavicle 7.35503e-015 3.18055e-015
lhumerus -28.9793 6.87587 83.8183
lradius 37.614
lwrist -4.60443
lhand -16.0898 26.139
lfingers 7.12502
lthumb 10.1135 55.876
rfemur -29.3923 2.37194 15.9723
rtibia 34.2639
rfoot -5.72909 -7.95543
rtoes -3.43944
lfemur -7.61742 -2.42665 -27.1621
ltibia 26.7464
lfoot -16.7444 -2.10721
ltoes 3.07688
172
root -10.1565 17.4594 -8.51936 1.64915 -3.30474 1.90852
lowerback 6.51026 -0.712333 -3.49585
upperback 0.347192 -1.1242 2.45974
thorax -3.17696 -0.493882 4.62416
lowerneck -16.7273 -2.33636 -9.45116
upperneck 23.0748 -1.71174 4.1613
head 10.2682 -1.13373 2.82819
rclavicle -2.08724e-015 -9.54166e-015
rhumerus -33.7496 -16.1967 -76.2576
rradius 31.0215
rwrist 7.68599
rhand -13.4905 16.1799
rfingers 7.12502
rthumb 12.6203 -13.4189
lclavicle -2.08724e-015 -9.54166e-015
lhumerus -28.9915 6.89145 83.7473
lradius 37.9998
lwrist -4.81474
lhand -15.9068 25.3925
lfingers 7.12502
lthumb 10.2901 55.1208
rfemur -29.1811 3.50061 15.4684
rtibia 31.4804
rfoot -5.63242 -7.59415
rtoes -2.95489
lfemur -7.21239 -2.38989 -27.1287
ltibia 26.4511
lfoot -16.7069 -2.18081
ltoes 2.6168
173
root -10.1638 17.4627 -8.38715 1.55681 -2.8485 1.9111
lowerback 6.40339 -0.806327 -3.43691
upperback 0.531289 -1.24258 2.45815
thorax -2.91484 -0.5637 4.59318
lowerneck -16.9164 -2.40878 -9.42943
upperneck 23.056 -1.80474 4.18385
head 10.3045 -1.1696 2.81941
rclavicle 4.37326e-015 -1.66979e-014
rhumerus -33.6185 -16.253 -76.2815
rradius 30.8843
rwrist 7.67665
rhand -13.6498 15.7572
rfingers 7.12502
rthumb 12.4668 -13.851
lclavicle 4.37326e-015 -1.66979e-014
lhumerus -28.6454 6.69724 83.7739
lradius 38.2071
lwrist -4.95478
lhand -15.8984 25.1538
lfingers 7.12502
lthumb 10.2982 54.8816
rfemur -28.5061 4.27365 14.9421
rtibia 28.8119
rfoot -5.6163 -6.98528
rtoes -5.29856
lfemur -6.41807 -2.6798 -27.1414
ltibia 26.1617
lfoot -17.0354 -2.19386
ltoes 2.16516
174
root -10.1716 17.4636 -8.26407 1.67704 -2.37469 1.89672
lowerback 6.34444 -0.926396 -3.3602
upperback 0.530684 -1.39663 2.42433
thorax -2.86898 -0.642723 4.52538
lowerneck -17.1038 -2.4679 -9.18885
upperneck 23.1872 -1.89653 4.0216
head 10.3907 -1.21073 2.70978
rclavicle -1.98785e-015 -2.62396e-014
rhumerus -33.6856 -16.4244 -76.2631
rradius 30.7021
rwrist 7.75296
rhand -13.5944 15.5911
rfingers 7.12502
rthumb 12.5202 -14.0138
lclavicle -1.98785e-015 -2.62396e-014
lhumerus -28.5168 6.45678 83.695
lradius 38.4353
lwrist -4.98443
lhand -16.1928 25.3036
lfingers 7.12502
lthumb 10.0141 55.0453
rfemur -28.0966 5.14821 14.3604
rtibia 26.2262
rfoot -5.61302 -6.13845
rtoes -6.21232
lfemur -5.93578 -2.87664 -27.0951
ltibia 25.969
lfoot -17.4071 -2.44414
ltoes 2.34576
175
root -10.1821 17.461 -8.1464 1.80034 -2.05715 1.84937
lowerback 6.2203 -1.0003 -3.2814
upperback 0.615074 -1.48708 2.40843
thorax -2.70516 -0.694319 4.46616
lowerneck -17.4176 -2.48403 -8.92616
upperneck 23.3281 -1.91678 3.83897
head 10.4986 -1.21847 2.5987
rclavicle -4.87022e-015 -3.18055e-015
rhumerus -33.6035 -16.4392 -76.422
rradius 30.7091
rwrist 7.64819
rhand -13.8078 16.4473
rfingers 7.12502
rthumb 12.3144 -13.1701
lclavicle -4.87022e-015 -3.18055e-015
lhumerus -28.1826 6.19245 83.6325
lradius 38.5647
lwrist -4.82368
lhand -16.4487 24.6576
lfingers 7.12502
lthumb 9.76727 54.4111
rfemur -27.7655 6.15933 13.8108
rtibia 23.7864
rfoot -5.73148 -5.19736
rtoes -6.41683
lfemur -5.54589 -3.07096 -27.0215
ltibia 25.8378
lfoot -17.6098 -2.54443
ltoes 2.10219
176
root -10.1972 17.4593 -8.02838 1.70888 -1.78366 1.69652
lowerback 6.3401 -1.02438 -3.20921
upperback 0.70598 -1.51489 2.48431
thorax -2.6751 -0.710992 4.50843
lowerneck -17.4231 -2.48198 -8.98003
upperneck 23.3426 -1.90592 3.87213
head 10.5052 -1.21434 2.62151
rclavicle -8.15017e-015 -7.15625e-015
rhumerus -33.6313 -16.302 -76.4692
rradius 30.841
rwrist 7.53055
rhand -13.9182 16.8004
rfingers 7.12502
rthumb 12.208 -12.8233
lclavicle -8.15017e-015 -7.15625e-015
lhumerus -28.0142 5.90627 83.685
lradius 38.8631
lwrist -4.59551
lhand -16.4809 25.254
lfingers 7.12502
lthumb 9.73619 55.009
rfemur -27.22 7.17055 13.4708
rtibia 21.5439
rfoot -5.81182 -4.20681
rtoes -7.61661
lfemur -4.97397 -3.15503 -26.8361
ltibia 25.7701
lfoot -17.8337 -2.63443
ltoes 1.38754
177
root -10.2072 17.453 -7.90414 1.54877 -1.53428 1.52902
lowerback 6.64821 -1.01644 -3.06432
upperback 0.686055 -1.49789 2.56956
thorax -2.87133 -0.698676 4.5234
lowerneck -17.1727 -2.44208 -9.10962
upperneck 23.2826 -1.83909 3.88319
head 10.4326 -1.19457 2.65612
rclavicle 1.03368e-014 -1.11319e-014
rhumerus -33.7244 -16.39 -76.2978
rradius 30.6854
rwrist 7.58029
rhand -13.7231 16.7756
rfingers 7.12502
rthumb 12.3961 -12.8368
lclavicle 1.03368e-014 -1.11319e-014
lhumerus -28.0777 5.62141 83.7773
lradius 39.1695
lwrist -4.60059
lhand -16.2471 25.7781
lfingers 7.12502
lthumb 9.96174 55.5224
rfemur -26.5725 7.76633 13.3188
rtibia 19.5475
rfoot -5.97021 -2.67971
rtoes -9.48402
lfemur -4.31862 -3.21774 -26.6573
ltibia 25.7598
lfoot -17.9769 -2.68266
ltoes 1.14548
178
root -10.2172 17.4485 -7.77702 1.52999 -1.30678 1.56305
lowerback 6.62106 -1.05476 -3.1385
upperback 0.741375 -1.55277 2.61047
thorax -2.79019 -0.727963 4.61108
lowerneck -16.8993 -2.36591 -9.12984
upperneck 23.005 -1.7299 3.80405
head 10.2715 -1.15193 2.64237
rclavicle -1.17283e-014 3.18055e-015
rhumerus -33.5143 -16.4814 -76.1844
rradius 30.1849
rwrist 7.72748
rhand -13.5442 16.8168
rfingers 7.12502
rthumb 12.5686 -12.7851
lclavicle -1.17283e-014 3.18055e-015
lhumerus -28.0634 5.6682 83.8204
lradius 39.4865
lwrist -4.78535
lhand -16.3134 25.8934
lfingers 7.12502
lthumb 9.89782 55.6407
rfemur -26.1657 7.9597 13.062
rtibia 17.906
rfoot -6.17305 -0.619198
rtoes -10.4812
lfemur -3.80473 -3.35155 -26.7058
ltibia 25.7396
lfoot -18.2186 -2.58027
ltoes 0.397101
179
root -10.2295 17.4387 -7.6551 1.54895 -1.1201 1.56611
lowerback 6.51604 -1.0396 -3.094
upperback 0.84794 -1.52882 2.56348
thorax -2.62598 -0.722418 4.52928
lowerneck -16.653 -2.36117 -9.02201
upperneck 22.6575 -1.7661 3.77157
head 10.1002 -1.15753 2.60301
rclavicle -4.67144e-015 -7.95139e-016
rhumerus -33.3892 -16.6763 -76.1959
rradius 29.7762
rwrist 7.96952
rhand -13.4552 16.7596
rfingers 7.12502
rthumb 12.6544 -12.837
lclavicle -4.67144e-015 -7.95139e-016
lhumerus -27.8714 5.30736 83.7884
lradius 39.7037
lwrist -4.65706
lhand -16.4937 25.6199
lfingers 7.12502
lthumb 9.72389 55.3754
rfemur -25.9439 8.05197 12.9376
rtibia 16.7487
rfoot -6.3202 1.30003
rtoes -11.2919
lfemur -3.34208 -3.5981 -26.7328
ltibia 25.7028
lfoot -18.1834 -2.44861
ltoes 0.214912
180
root -10.2425 17.436 -7.5367 1.61202 -0.863075 1.615
lowerback 6.49066 -0.985989 -3.10105
upperback 0.845381 -1.45924 2.4919
thorax -2.62314 -0.687824 4.45208
lowerneck -16.7409 -2.40744 -8.88217
upperneck 22.822 -1.8465 3.70935
head 10.1795 -1.19195 2.54867
rclavicle 3.8266e-014 2.38542e-014
rhumerus -33.5943 -16.9472 -76.1482
rradius 29.7793
rwrist 8.14024
rhand -13.585 16.8279
rfingers 7.12502
rthumb 12.5293 -12.7764
lclavicle 3.8266e-014 2.38542e-014
lhumerus -27.6242 4.89776 83.7681
lradius 39.6097
lwrist -4.77046
lhand -16.7282 24.3202
lfingers 7.12502
lthumb 9.49763 54.0862
rfemur -25.8168 7.89045 12.8879
rtibia 16.0483
rfoot -6.44822 2.93754
rtoes -11.9327
lfemur -2.9744 -3.94957 -26.8027
ltibia 25.7029
lfoot -18.1431 -2.32286
ltoes -0.226072
181
root -10.254 17.4282 -7.41854 1.63783 -0.360119 1.68123
lowerback 6.51534 -1.09512 -3.14335
upperback 0.81652 -1.60797 2.49386
thorax -2.65078 -0.760415 4.49158
lowerneck -16.6139 -2.35291 -8.90344
upperneck 22.8857 -1.77703 3.7098
head 10.1737 -1.16386 2.56312
rclavicle -1.2921e-015 -1.98785e-014
rhumerus -33.7186 -16.7337 -76.18
rradius 29.8905
rwrist 8.12419
rhand -13.7511 16.4735
rfingers 7.12502
rthumb 12.3691 -13.1406
lclavicle -1.2921e-015 -1.98785e-014
lhumerus -27.514 4.70516 83.8017
lradius 39.592
lwrist -4.74759
lhand -16.8211 24.617
lfingers 7.12502
lthumb 9.40799 54.3871
rfemur -25.6538 7.72072 12.7591
rtibia 15.764
rfoot -6.52375 4.15426
rtoes -12.1794
lfemur -2.60629 -4.34689 -26.8604
ltibia 25.8098
lfoot -18.2444 -2.30623
ltoes -1.2917
